<svg width="20" height="20" viewBox="0 0 20 20" fill="none" xmlns="http://www.w3.org/2000/svg">
<path d="M4.06622 14.5895C3.98407 14.5895 3.90391 14.5549 3.8465 14.4925C3.76733 14.4055 3.74754 14.2788 3.79504 14.1709C3.89203 13.9561 3.90985 13.7503 3.84947 13.5593C3.79999 13.4049 3.8851 13.2396 4.03851 13.1881L7.14223 12.1519L10.1578 11.1295C10.3132 11.0771 10.4814 11.1602 10.5339 11.3156C10.5863 11.471 10.5032 11.6392 10.3478 11.6917L7.33124 12.7151L4.47303 13.6701C4.47798 13.7265 4.47897 13.7839 4.47699 13.8413L7.41552 12.8487C7.56991 12.7962 7.73815 12.8793 7.79161 13.0337L7.93116 13.4385C7.94799 13.4445 7.98461 13.4494 8.03409 13.4326L11.2615 12.3409C11.4168 12.2885 11.5851 12.3716 11.6375 12.527C11.69 12.6824 11.6069 12.8506 11.4515 12.9031L8.22792 13.9928C8.04087 14.0591 7.835 14.0512 7.66677 13.97C7.52821 13.9027 7.42528 13.7909 7.37778 13.6543L7.32632 13.5049L4.1623 14.5737C4.13162 14.5846 4.09895 14.5896 4.06728 14.5896L4.06622 14.5895ZM13.5299 11.7668C13.4537 11.7668 13.3775 11.7371 13.3191 11.6787C13.2033 11.5619 13.2043 11.3739 13.3211 11.2591C13.6012 10.981 13.7387 10.7167 13.8051 10.5119L12.6352 10.9087C12.4798 10.9612 12.3116 10.8781 12.2591 10.7227C12.2067 10.5673 12.2898 10.399 12.4452 10.3466L14.0634 9.79827C14.1475 9.76957 14.2395 9.78046 14.3147 9.82697C14.39 9.87349 14.4404 9.95069 14.4533 10.0388C14.4583 10.0724 14.5582 10.8711 13.7397 11.6817C13.6823 11.7391 13.6061 11.7678 13.5309 11.7678L13.5299 11.7668Z" fill="#D9303C"/>
<path d="M2.31764 15.6221C1.57042 15.6221 0.912252 15.244 0.695523 14.6176C0.415428 13.7783 1.01915 12.8183 2.03757 12.4729C2.60073 12.2829 3.19651 12.3076 3.67157 12.5431C4.02986 12.7203 4.29113 13.0083 4.4079 13.3547C4.52667 13.7031 4.49599 14.092 4.31982 14.4503C4.08625 14.9244 3.62899 15.3054 3.06488 15.4964C2.81448 15.5815 2.5621 15.6211 2.31864 15.6211L2.31764 15.6221ZM2.79171 12.942C2.60565 12.942 2.41364 12.9737 2.22757 13.036C1.51696 13.2765 1.0815 13.9001 1.25668 14.4266C1.4368 14.9462 2.16225 15.1758 2.87287 14.9353C3.28261 14.7967 3.62404 14.5176 3.78539 14.189C3.8606 14.0366 3.93186 13.8011 3.84477 13.5467C3.84477 13.5457 3.84477 13.5457 3.84378 13.5447C3.75965 13.2943 3.55973 13.1508 3.40731 13.0756C3.22718 12.9865 3.01439 12.941 2.79171 12.941L2.79171 12.942Z" fill="#D9303C"/>
<path d="M5.70465 16.2347C5.63339 16.2347 5.56312 16.2089 5.5077 16.1594C5.41863 16.0803 5.38597 15.9556 5.42358 15.8427L6.2668 13.3546C6.29649 13.2665 6.36577 13.1973 6.45385 13.1686L7.35647 12.8677C7.46336 12.8321 7.58113 12.8598 7.66129 12.9399C7.74047 13.0201 7.76818 13.1379 7.73156 13.2448L6.80916 15.9606C6.75769 16.112 6.59538 16.1951 6.44297 16.1496C6.24701 16.0902 6.03619 16.11 5.83332 16.207C5.79274 16.2268 5.7492 16.2357 5.70565 16.2357L5.70465 16.2347ZM6.21731 15.5231C6.25492 15.5231 6.29154 15.5241 6.32816 15.527L6.97642 13.6199L6.78145 13.6852L6.15893 15.5241C6.17872 15.5231 6.19852 15.5231 6.21831 15.5231L6.21731 15.5231ZM6.85468 12.8508C6.77748 12.8508 6.70226 12.8211 6.64486 12.7647C6.63001 12.7499 6.61715 12.734 6.60527 12.7162L6.344 12.6272C6.03026 12.5183 5.87885 12.1333 6.00454 11.7681L7.2209 8.17158C8.18487 5.33617 9.88629 5.54089 9.95749 5.55179C10.0446 5.56366 10.1228 5.61513 10.1693 5.69034C10.2158 5.76556 10.2257 5.8576 10.198 5.94074L9.03408 9.38498L8.03053 12.3412C8.00084 12.4283 7.93354 12.4966 7.84644 12.5263L7.36447 12.6936L6.94781 12.8351C6.91713 12.846 6.88447 12.8509 6.8528 12.8509L6.85468 12.8508ZM6.55973 12.0729L6.95364 12.2065L7.17434 12.1323L7.51679 12.0135L8.47383 9.19485L9.48729 6.194C9.0439 6.33355 8.31449 6.80565 7.78498 8.36245L6.56764 11.96C6.54883 12.0154 6.55477 12.055 6.55972 12.0738L6.55973 12.0729Z" fill="#D9303C"/>
<path d="M5.82015 19.3731C5.67269 19.3731 5.52721 19.3493 5.38766 19.3018C5.04027 19.186 4.75029 18.9238 4.57114 18.5655C4.33559 18.0914 4.30987 17.4966 4.50087 16.9335C4.84628 15.9141 5.80628 15.3113 6.6416 15.5904C6.64259 15.5904 6.64358 15.5914 6.64358 15.5914C7.47791 15.8774 7.87577 16.9404 7.53036 17.9608C7.33934 18.5249 6.95831 18.9822 6.48424 19.2157C6.26848 19.3216 6.04184 19.3751 5.82015 19.3751L5.82015 19.3731ZM6.21208 16.114C5.74891 16.114 5.26789 16.5188 5.06302 17.1236C4.92446 17.5323 4.93931 17.9727 5.10261 18.3013C5.17882 18.4547 5.32331 18.6556 5.57767 18.7397C5.834 18.8278 6.06955 18.7566 6.22198 18.6813C6.55056 18.52 6.82965 18.1786 6.96821 17.7688C7.20871 17.0582 6.97712 16.3337 6.45256 16.1526C6.37438 16.1269 6.29324 16.114 6.21208 16.114Z" fill="#D9303C"/>
<path d="M18.967 17.6808C17.2044 17.6808 15.4625 17.3107 13.788 16.5783C12.4341 15.9865 11.1168 15.1571 9.87376 14.1119C9.74807 14.006 9.73223 13.819 9.83714 13.6933C9.94304 13.5676 10.1301 13.5518 10.2558 13.6567C12.9637 15.932 15.8942 17.086 18.9652 17.086H19.0721H19.075C19.2374 17.086 19.371 17.2176 19.372 17.3799C19.373 17.5442 19.2413 17.6778 19.078 17.6798H18.9691L18.967 17.6808ZM6.86784 10.463C6.79262 10.463 6.7174 10.4343 6.65901 10.3779C5.34567 9.08135 4.36091 7.09705 3.73239 4.47827C3.26724 2.54142 3.18309 1.00337 3.18013 0.939013C3.17122 0.775712 3.2979 0.636166 3.46121 0.627248C3.62451 0.617351 3.76406 0.745022 3.77298 0.908331C3.77397 0.923177 3.85809 2.46513 4.31237 4.35055C4.72705 6.07264 5.54258 8.44188 7.07658 9.95523C7.19336 10.07 7.19435 10.2581 7.07955 10.3749C7.02115 10.4332 6.94503 10.463 6.86784 10.463Z" fill="#D9303C"/>
<path d="M19.0751 16.1209C19.0672 16.1209 19.0593 16.1209 19.0523 16.1199C15.1262 15.817 12.4311 13.9287 11.1752 12.8302C10.7338 12.4472 10.3201 12.0335 9.90938 11.5653C9.37989 10.9587 8.89098 10.2896 8.4545 9.57902C8.3684 9.43947 8.41294 9.25638 8.55249 9.17027C8.69203 9.08515 8.87512 9.1287 8.96124 9.26825C9.37987 9.95114 9.849 10.5925 10.3567 11.1744C10.7487 11.6218 11.1435 12.0166 11.5651 12.3828C12.7676 13.4339 15.3428 15.2383 19.0987 15.5281C19.262 15.541 19.3847 15.6835 19.3719 15.8468C19.36 16.0022 19.2293 16.1209 19.0759 16.1209L19.0751 16.1209ZM7.73802 7.87461C7.6351 7.87461 7.53513 7.82116 7.48071 7.72615C5.67943 4.5976 5.80908 1.05961 5.81602 0.910128C5.82295 0.745836 5.9625 0.618176 6.12581 0.626081C6.2901 0.633009 6.41678 0.771568 6.40986 0.93587C6.40788 0.979416 6.28516 4.45815 7.99636 7.42936C8.0785 7.57188 8.02902 7.75298 7.88749 7.83515C7.84097 7.86187 7.78951 7.87474 7.74002 7.87474L7.73802 7.87461Z" fill="#D9303C"/>
<path d="M19.0757 14.1821C19.0589 14.1821 19.0411 14.1801 19.0233 14.1771C16.84 13.7892 14.914 12.9766 13.2988 11.7612C12.891 11.4514 12.5189 11.1328 12.1923 10.8131C11.0452 9.70166 10.101 8.36257 9.38853 6.8345C9.31925 6.68604 9.38358 6.50888 9.53204 6.43961C9.6805 6.37033 9.85766 6.43466 9.92693 6.58312C10.6088 8.04589 11.5105 9.32554 12.606 10.3876C12.9158 10.6915 13.2691 10.9933 13.6561 11.2873C15.1951 12.4452 17.036 13.2212 19.1272 13.5923C19.2886 13.621 19.3964 13.7754 19.3677 13.9368C19.342 14.0803 19.2173 14.1821 19.0757 14.1821ZM9.3103 6.18916C9.19945 6.18916 9.09355 6.1278 9.04308 6.02091C7.93559 3.72479 7.93559 1.03469 7.93658 0.92093C7.93757 0.757629 8.07019 0.625 8.2335 0.625H8.23548C8.39977 0.62599 8.53141 0.7596 8.53141 0.922907C8.53141 0.949629 8.5324 3.59211 9.57851 5.76167C9.64977 5.90914 9.58742 6.0873 9.43995 6.15854C9.39839 6.17834 9.35484 6.18823 9.31129 6.18823L9.3103 6.18916Z" fill="#D9303C"/>
<path d="M16.5251 19.0504C16.5142 19.0504 16.5023 19.0494 16.4905 19.0484C14.2567 18.7931 12.2633 18.0855 10.5671 16.9463C10.4305 16.8552 10.3948 16.6702 10.4859 16.5346C10.577 16.398 10.762 16.3624 10.8976 16.4534C12.5148 17.5391 14.4189 18.2131 16.5578 18.4586C16.7211 18.4774 16.8379 18.6249 16.8191 18.7872C16.8012 18.9386 16.6736 19.0504 16.5241 19.0504L16.5251 19.0504Z" fill="#D9303C"/>
</svg>
