<svg width="18" height="20" viewBox="0 0 18 20" fill="none" xmlns="http://www.w3.org/2000/svg">
<path d="M16.877 1.92456H9.26707C8.86562 1.92456 8.53906 2.25112 8.53906 2.65257V4.81162C8.53906 5.21306 8.86562 5.53962 9.26707 5.53962H10.045V5.63205C10.045 6.54223 10.4512 7.39438 11.1583 7.96923C11.692 8.40239 11.9976 9.06832 11.9976 9.79565V11.5472C11.9976 12.4162 11.9133 13.2717 11.7473 14.0901C11.7297 14.1778 11.7864 14.2642 11.8741 14.2817C11.9625 14.3 12.0482 14.2426 12.0657 14.1549C12.2364 13.3149 12.3228 12.4378 12.3228 11.5472V9.79565C12.3228 9.39892 12.2378 9.0022 12.0772 8.64798C11.9119 8.28364 11.665 7.9618 11.3634 7.71689C10.7318 7.20411 10.3702 6.4444 10.3702 5.63273V5.54029H15.7402V5.63273C15.7402 6.43563 15.3846 7.18994 14.7645 7.70272C14.7551 7.71014 14.7463 7.71824 14.7376 7.72566C14.2626 8.10822 13.6668 8.31805 13.0549 8.31805C12.9651 8.31805 12.8922 8.39092 12.8922 8.48065C12.8922 8.57039 12.9651 8.64325 13.0549 8.64325C13.4111 8.64325 13.7599 8.58186 14.0912 8.45974C14.1141 8.45096 14.1377 8.44219 14.1607 8.43342C14.1256 8.49752 14.0925 8.56364 14.0622 8.63111C13.9043 8.9833 13.8206 9.37666 13.8206 9.77001V11.6558C13.8206 13.0268 14.0257 14.3533 14.4299 15.5988C14.6107 16.1561 14.7106 16.6938 14.7106 17.1128C14.7106 18.2173 13.9988 19.0505 13.0549 19.0505C12.953 19.0505 12.8511 19.0404 12.7526 19.0202C12.6649 19.0026 12.5785 19.0593 12.561 19.147C12.5434 19.2347 12.6001 19.3211 12.6878 19.3386C12.8079 19.3629 12.9307 19.3751 13.0549 19.3751C13.5939 19.3751 14.0939 19.1457 14.4623 18.7287C14.832 18.3104 15.0358 17.7362 15.0358 17.1128C15.0358 16.6608 14.9305 16.0873 14.7396 15.4982C14.3456 14.2858 14.1458 12.9924 14.1458 11.6558V9.77001C14.1458 9.0609 14.4366 8.40913 14.9454 7.97462C14.9541 7.9672 14.9629 7.96045 14.9717 7.95303C14.9757 7.94966 14.9791 7.94629 14.9832 7.94291C15.6707 7.36874 16.0647 6.52739 16.0647 5.63205V5.53962H16.8764C17.2778 5.53962 17.6044 5.21306 17.6044 4.81162V2.65189C17.6044 2.25112 17.2778 1.92456 16.877 1.92456ZM17.2792 4.81162C17.2792 5.03359 17.0983 5.21441 16.8764 5.21441H15.9028H10.2076H9.26707C9.04509 5.21441 8.86427 5.03359 8.86427 4.81162V2.65189C8.86427 2.42991 9.04509 2.24909 9.26707 2.24909H16.877C17.099 2.24909 17.2798 2.42991 17.2798 2.65189V4.81162H17.2792Z" fill="#D9303C" stroke="#D9303C" stroke-width="0.1875"/>
<path d="M9.80909 3.32447H11.1011C11.1909 3.32447 11.2637 3.25161 11.2637 3.16187C11.2637 3.07214 11.1909 2.99927 11.1011 2.99927H9.80909C9.71935 2.99927 9.64648 3.07214 9.64648 3.16187C9.64648 3.25161 9.71935 3.32447 9.80909 3.32447Z" fill="#D9303C" stroke="#D9303C" stroke-width="0.1875"/>
<path d="M16.2978 2.99927H11.9683C11.8785 2.99927 11.8057 3.07214 11.8057 3.16187C11.8057 3.25161 11.8785 3.32447 11.9683 3.32447H16.2978C16.3876 3.32447 16.4604 3.25161 16.4604 3.16187C16.4604 3.07214 16.3876 2.99927 16.2978 2.99927Z" fill="#D9303C" stroke="#D9303C" stroke-width="0.1875"/>
<path d="M16.2977 4.13501H9.80909C9.71935 4.13501 9.64648 4.20788 9.64648 4.29761C9.64648 4.38735 9.71935 4.46022 9.80909 4.46022H16.2977C16.3874 4.46022 16.4603 4.38735 16.4603 4.29761C16.4603 4.20788 16.3874 4.13501 16.2977 4.13501Z" fill="#D9303C" stroke="#D9303C" stroke-width="0.1875"/>
<path d="M3.24576 19.0491H1.23514C0.951091 19.0491 0.719667 18.8177 0.719667 18.5336V8.64182H9.19731V11.3568C9.19731 11.4466 9.27018 11.5194 9.35992 11.5194C9.44965 11.5194 9.52252 11.4466 9.52252 11.3568V6.22099C9.52252 6.13125 9.44965 6.05838 9.35992 6.05838C9.27018 6.05838 9.19731 6.13125 9.19731 6.22099V8.21339L6.33252 6.74996V5.07062C6.33252 5.04768 6.35141 5.02811 6.37503 5.02811H6.95662C7.22785 5.02811 7.44781 4.80749 7.44781 4.53693V4.17529C7.44781 3.90406 7.22718 3.6841 6.95662 3.6841H3.99198C3.67689 3.6841 3.41983 3.94049 3.41983 4.25625V6.83429L0.719667 8.21406V3.29885C0.719667 2.00409 1.77288 0.950207 3.06831 0.950207H6.84935C7.45995 0.950207 8.03885 1.18365 8.47875 1.60737C8.54352 1.66944 8.64608 1.66809 8.70883 1.60332C8.7709 1.53855 8.76955 1.43599 8.70478 1.37325C8.20415 0.890833 7.54564 0.625 6.85002 0.625H3.06898C2.70802 0.625 2.35785 0.695844 2.02859 0.834833C1.71013 0.969773 1.42406 1.16206 1.17914 1.40766C0.934223 1.65325 0.740583 1.93932 0.606317 2.25711C0.466654 2.58704 0.396484 2.93721 0.396484 3.2975V18.5323C0.396484 18.9958 0.773644 19.373 1.23716 19.373H3.24778C3.33752 19.373 3.41038 19.3001 3.41038 19.2104C3.41038 19.1206 3.33549 19.0491 3.24576 19.0491ZM3.70388 7.05492H6.16992H6.2131L8.68454 8.31729H1.23312L3.70388 7.05492ZM3.74504 4.25693C3.74504 4.12064 3.85569 4.00999 3.99198 4.00999H6.95595C7.04771 4.00999 7.1226 4.08488 7.1226 4.17664V4.53828C7.1226 4.63004 7.04771 4.70493 6.95595 4.70493H6.37435C6.17194 4.70493 6.00732 4.86956 6.00732 5.07197V6.73039H3.74504V4.25693Z" fill="#D9303C" stroke="#D9303C" stroke-width="0.1875"/>
<path d="M11.4263 16.7051C11.7278 16.4582 11.9208 16.083 11.9208 15.6641C11.9208 14.9779 11.404 14.4098 10.7394 14.3288C11.0329 14.0819 11.2205 13.7121 11.2205 13.2992C11.2205 12.5577 10.6173 11.9539 9.87511 11.9539H7.96772C7.31191 11.9539 6.75461 11.4418 6.69928 10.788L6.67162 10.4601C6.66689 10.4068 6.63653 10.3589 6.59065 10.3326C6.5441 10.3062 6.4881 10.3042 6.43952 10.3272C6.4213 10.3359 5.98275 10.5491 5.55296 11.0005C5.29927 11.267 5.10091 11.5619 4.96327 11.8769C4.79055 12.2723 4.71363 12.6994 4.73455 13.1461C4.75209 13.5165 4.89647 13.8896 5.1306 14.1696C5.17715 14.2256 5.2264 14.2762 5.27836 14.3227C4.58341 14.374 4.03353 14.9563 4.03353 15.6641C4.03353 16.083 4.22649 16.4582 4.52809 16.7051C3.89926 16.8178 3.4209 17.3684 3.4209 18.0289C3.4209 18.7704 4.02408 19.3742 4.76626 19.3742H11.1901C11.9316 19.3742 12.5355 18.7711 12.5355 18.0289C12.5334 17.369 12.0551 16.8178 11.4263 16.7051ZM5.05908 13.1312C5.02534 12.414 5.26756 11.7757 5.78033 11.234C5.99489 11.0073 6.21484 10.8447 6.36935 10.7448L6.37542 10.817C6.40916 11.2171 6.59065 11.5875 6.88617 11.8587C7.18169 12.1306 7.5656 12.2804 7.96772 12.2804H9.87511C10.4378 12.2804 10.8953 12.7379 10.8953 13.3006C10.8953 13.8633 10.4378 14.3207 9.87511 14.3207H6.07923C5.50236 14.3194 5.08607 13.7047 5.05908 13.1312ZM11.1888 19.049H4.76491C4.2022 19.049 3.74476 18.5916 3.74476 18.0289C3.74476 17.4662 4.2022 17.0087 4.76491 17.0087H8.99057C9.08031 17.0087 9.15318 16.9359 9.15318 16.8461C9.15318 16.7564 9.08031 16.6835 8.99057 16.6835H5.37821C4.81551 16.6835 4.35806 16.2261 4.35806 15.6634C4.35806 15.1007 4.81551 14.6432 5.37821 14.6432H10.5755C11.1382 14.6432 11.5956 15.1007 11.5956 15.6634C11.5956 16.2261 11.1382 16.6835 10.5755 16.6835C10.4857 16.6835 10.4128 16.7564 10.4128 16.8461C10.4128 16.9359 10.4857 17.0087 10.5755 17.0087H11.1888C11.7515 17.0087 12.2089 17.4662 12.2089 18.0289C12.2089 18.5916 11.7508 19.049 11.1888 19.049Z" fill="#D9303C" stroke="#D9303C" stroke-width="0.1875"/>
</svg>
